<?xml version="1.0" encoding="UTF-8" standalone="no"?>
<!-- Created with Inkscape (http://www.inkscape.org/) -->

<svg
   version="1.1"
   id="svg1"
   width="790.66669"
   height="309.09332"
   viewBox="0 0 790.66669 309.09332"
   sodipodi:docname="Amil.eps"
   xmlns:inkscape="http://www.inkscape.org/namespaces/inkscape"
   xmlns:sodipodi="http://sodipodi.sourceforge.net/DTD/sodipodi-0.dtd"
   xmlns="http://www.w3.org/2000/svg"
   xmlns:svg="http://www.w3.org/2000/svg">
  <defs
     id="defs1" />
  <sodipodi:namedview
     id="namedview1"
     pagecolor="#ffffff"
     bordercolor="#000000"
     borderopacity="0.25"
     inkscape:showpageshadow="2"
     inkscape:pageopacity="0.0"
     inkscape:pagecheckerboard="0"
     inkscape:deskcolor="#d1d1d1">
    <inkscape:page
       x="0"
       y="0"
       inkscape:label="1"
       id="page1"
       width="790.66669"
       height="309.09332"
       margin="0"
       bleed="0" />
  </sodipodi:namedview>
  <g
     id="g1"
     inkscape:groupmode="layer"
     inkscape:label="1">
    <path
       id="path1"
       d="m 3311.95,1768.13 -215.54,103.55 c -353.71,-143.93 -697.1,-219.79 -1026.62,-16.02 l -90.82,-164.54 c 419.99,-261.03 882.6,-113.58 1332.98,77.01"
       style="fill:#000000;fill-opacity:1;fill-rule:nonzero;stroke:none"
       transform="matrix(0.13333333,0,0,-0.13333333,0,309.09333)" />
    <path
       id="path2"
       d="M 1022.68,1735.33 0,0.449219 374.375,0.429688 638.465,450.039 1185.89,449.18 V 0.429688 h 594.66 V 1981.87 h -465.68 c -173.49,0 -219.15,-136.96 -292.19,-246.54 z M 1185.89,762.422 H 823.266 l 362.624,616.668 z"
       style="fill:#000000;fill-opacity:1;fill-rule:nonzero;stroke:none"
       transform="matrix(0.13333333,0,0,-0.13333333,0,309.09333)" />
    <path
       id="path3"
       d="m 2289.26,2262.5 c 0,0 -104.43,-184.79 -104.47,-191.11 805.3,216.99 1555,-738.3 2228.21,-503.12 l 130.52,226.3 C 3912.97,1390.43 3134.03,2422.88 2289.26,2262.5"
       style="fill:#000000;fill-opacity:1;fill-rule:nonzero;stroke:none"
       transform="matrix(0.13333333,0,0,-0.13333333,0,309.09333)" />
    <path
       id="path4"
       d="m 3934.41,1411.18 c -184.15,-9.13 -328.72,-68.48 -479.38,-269.36 -127.83,196.32 -346.98,269.36 -483.94,269.36 -136.97,0 -299.04,-31.96 -463.41,-228.27 v 182.62 H 1984.94 V 0.429688 h 522.75 L 2507.68,826.797 c 0,333.283 473.52,337.843 473.52,0 l 0.01,-826.367312 h 522.74 V 826.797 c 0,333.283 445.15,337.843 445.15,0 V 0.429688 h 523.73 V 950.059 c -0.3,222.191 -242.03,475.821 -538.42,461.121"
       style="fill:#000000;fill-opacity:1;fill-rule:nonzero;stroke:none"
       transform="matrix(0.13333333,0,0,-0.13333333,0,309.09333)" />
    <path
       id="path5"
       d="M 5406.22,1983.54 V 0.429688 h 523.74 V 1983.54 h -523.74"
       style="fill:#000000;fill-opacity:1;fill-rule:nonzero;stroke:none"
       transform="matrix(0.13333333,0,0,-0.13333333,0,309.09333)" />
    <path
       id="path6"
       d="m 3446.62,2027.31 215.94,-107.02 c 364.25,155.66 710.29,275.32 1006.99,151.97 l 105.57,182.29 c -451.93,168.83 -896.8,-28.42 -1328.5,-227.24"
       style="fill:#000000;fill-opacity:1;fill-rule:nonzero;stroke:none"
       transform="matrix(0.13333333,0,0,-0.13333333,0,309.09333)" />
    <path
       id="path7"
       d="m 4944.34,2035.39 c -147.72,0 -267.46,-119.74 -267.46,-267.46 0,-147.73 119.74,-267.48 267.46,-267.48 147.73,0 267.48,119.75 267.48,267.48 0,147.72 -119.75,267.46 -267.48,267.46"
       style="fill:#000000;fill-opacity:1;fill-rule:nonzero;stroke:none"
       transform="matrix(0.13333333,0,0,-0.13333333,0,309.09333)" />
    <path
       id="path8"
       d="m 4682.48,0 h 523.73 V 1364.76 H 4682.48 V 0"
       style="fill:#000000;fill-opacity:1;fill-rule:nonzero;stroke:none"
       transform="matrix(0.13333333,0,0,-0.13333333,0,309.09333)" />
  </g>
</svg>
